<?xml version="1.0" encoding="UTF-8"?>
<!DOCTYPE svg PUBLIC "-//W3C//DTD SVG 1.1//EN" "http://www.w3.org/Graphics/SVG/1.1/DTD/svg11.dtd">
<!-- Creator: CorelDRAW -->
<svg xmlns="http://www.w3.org/2000/svg" xml:space="preserve" width="50mm" height="70.7143mm" version="1.1" style="shape-rendering:geometricPrecision; text-rendering:geometricPrecision; image-rendering:optimizeQuality; fill-rule:evenodd; clip-rule:evenodd"
viewBox="0 0 5000 7071.43"
 xmlns:xlink="http://www.w3.org/1999/xlink"
 xmlns:xodm="http://www.corel.com/coreldraw/odm/2003">
 <defs>
  <style type="text/css">
   <![CDATA[
    .fil0 {fill:#373435}
   ]]>
  </style>
 </defs>
 <g id="Camada_x0020_1">
  <metadata id="CorelCorpID_0Corel-Layer"/>
  <g id="_2020073670096">
   <path class="fil0" d="M2770.29 3434.05c-1.02,13.09 3.52,22.05 -2.9,30.45 -18.14,23.73 39.02,9.04 38.75,-26.39 -0.15,-19.49 -34.55,-20.84 -35.85,-4.05zm-4.8 87.61l115.2 -124.12c25.83,9.41 0.87,27.51 -7.94,41.45 50.65,96.43 -47.43,172.5 -85.76,93.01l-21.5 -10.33zm39.93 8.48c29.5,2.73 30.43,-8.71 17.4,-38.89l35.51 -39.56c14.41,39.89 7.89,79.55 -19.97,90.19 -25.02,9.55 -40.31,-3.55 -32.93,-11.74zm-273.55 13.64c9.85,-1.47 21.8,-9.41 25.22,-14.44 40.18,-72.52 115.25,-116.7 139.57,-81.09l85.65 -88.35 39.97 0.66c-10.11,11.43 -172.18,168.9 -158.72,179.33 3.52,2.72 29.95,-5.73 65.99,-36.04l9.55 11.13c-31.9,23.29 -76.66,73.97 -114.76,38.76 -21.78,14.29 -44.74,18.84 -69.06,-2.64 -12.29,3.72 -21.48,14.38 -40.72,14.05 -54.82,4.17 -9.68,-55.7 25.42,-94.87l-33.42 -0.46c-23.3,39.5 -91.48,142.38 -134.84,73 -21.68,14.12 -69.09,51.83 -65.91,-19.09l-25.29 3.2 1.27 -13.19c31.59,-5.67 61.92,-30.58 88.88,-72.62l40.03 -0.01c-18.32,23.39 -39.45,49 -60.2,74.51 -24.34,29.93 10.28,17.43 19.53,7.9 29.13,-30.04 45.42,-53.1 70.02,-82.55l36.29 0.12 -50.56 71.42c-16.01,22.61 0.51,24.95 7.47,16.23 38.61,-48.38 72.9,-97.71 96.44,-129.38l7.61 23.47c-4.86,4.18 -16.92,12.96 -12.9,23.72 39.03,-6.88 94,-14.98 52.24,31 -12.72,20.59 -63.86,69.92 -44.77,66.24zm-252.34 -105.99c-33.97,-0.91 -69.49,-11.12 -83.35,-23.89 -2.28,-2.1 4.62,-8.02 13.33,-21.98 26.92,18.91 43.19,19.11 83.15,22.21 29.53,-48.19 68.26,-82.61 112.55,-101.76 118.05,-51.06 68.66,137.85 -86.09,128.86l-89.14 97.44c192.71,107.56 485.86,84.78 649.45,20.62 -131.92,122.98 -496.56,134.81 -669.53,-5.93 -70.74,47.02 -141.02,-9.37 -137.15,-41.2 4.35,-35.8 79.23,-56.66 132.84,4.67 24.44,-25.8 52.21,-56.28 73.94,-79.05zm95.71 -81.28c31.15,-23.02 64.54,-34.73 71.52,-25.95 6.98,8.78 -6.17,41.89 -41.8,65.22 -35.63,23.33 -70.7,29.69 -77.68,20.91 -6.98,-8.78 16.81,-37.16 47.96,-60.18zm-226.93 149.63c24.34,6.12 41.4,19.5 38.11,29.89 -3.28,10.39 -25.67,13.85 -50.01,7.74 -24.34,-6.12 -41.4,-19.5 -38.12,-29.89 3.29,-10.39 25.68,-13.85 50.01,-7.74zm523.81 -44.94c-5.01,-6.37 -24.96,4.15 -49.14,26.87 -24.17,22.71 -39.42,45.82 -34.41,52.2 5.01,6.37 31.16,-6.16 55.33,-28.88 24.17,-22.71 33.22,-43.81 28.21,-50.19z"/>
   <path class="fil0" d="M2597.27 3711.56l15.66 -23.37c-3.56,0.14 -7.31,0.65 -11.26,1.54 -3.93,0.88 -7.32,1.84 -10.12,2.84 -2.81,1.02 -5.32,1.98 -7.53,2.88 -2.21,0.91 -3.79,1.56 -4.75,1.93 -0.25,0 -0.47,-0.09 -0.72,-0.25 -0.25,-0.18 -0.35,-0.39 -0.35,-0.63 0,-0.26 0.79,-1.95 2.38,-5.03 1.6,-3.07 3.47,-6.39 5.63,-9.91 11.98,-4.28 22.58,-6.42 31.75,-6.42 10.63,0 18,2.26 22.1,6.79 1.47,1.56 2.63,3.51 3.44,5.83 0.81,2.31 1.21,4.6 1.21,6.86 0,5.14 -1.07,9.81 -3.23,14 -2.14,4.19 -5.21,7.84 -9.18,10.91 -3.98,3.09 -8.67,5.44 -14.04,7.07 -5.38,1.63 -11.28,2.44 -17.68,2.44 -1.12,0 -3.44,-0.21 -6.95,-0.61l-4.61 8.42c0.47,0.72 0.72,1.3 0.72,1.76 0,1.05 -0.25,1.95 -0.72,2.66 -0.68,1.04 -1.6,2.39 -2.72,4.05 -1.14,1.68 -1.9,2.81 -2.3,3.35 -0.39,0.55 -0.84,1.02 -1.33,1.44 -0.49,0.4 -0.98,0.61 -1.46,0.61 -1,0 -1.63,-0.3 -1.91,-0.9 -0.28,-0.6 -0.4,-1.44 -0.4,-2.49 0,-1.51 0.74,-3.9 2.23,-7.18 1.49,-3.26 3.74,-7.61 6.75,-13.02 -1.6,-0.63 -2.86,-1.42 -3.75,-2.42 -0.88,-1 -1.33,-1.96 -1.33,-2.93 0,-2.12 1.23,-4.09 3.65,-5.91 2.44,-1.81 6.04,-3.25 10.81,-4.32zm5.33 1.39l-2.93 4.93c1.3,0.07 2.46,0.14 3.47,0.21 1,0.07 1.86,0.1 2.54,0.1 6,0 11.19,-0.81 15.6,-2.42 4.4,-1.6 7.9,-3.6 10.49,-5.98 2.58,-2.37 4.45,-4.77 5.61,-7.16 1.18,-2.4 1.75,-4.4 1.75,-6.02 0,-2.23 -0.9,-3.97 -2.66,-5.25 -1.79,-1.26 -4.35,-2.12 -7.69,-2.58 -3.35,-0.47 -7.65,-0.7 -12.93,-0.7 0.07,0.37 0.1,0.84 0.1,1.39 0,1.79 -0.95,4.12 -2.82,7.03l-8.95 14.02 6.74 -0.75c0.55,0 0.83,0.25 0.83,0.77 0,0.44 -0.46,0.75 -1.35,0.91l-7.8 1.49zm64.36 12.37l0 3.8c-7.18,9.49 -13,14.23 -17.49,14.23 -2.42,0 -4.33,-1.33 -5.72,-3.98 -1.39,-2.65 -2.09,-6.14 -2.09,-10.45 0,-3.49 0.83,-7.65 2.47,-12.45 1.63,-4.82 3.84,-9.7 6.6,-14.65 2.76,-4.95 5.61,-9.26 8.58,-12.95 2.97,-3.68 5.72,-6.26 8.26,-7.74 1.02,-0.62 1.82,-0.93 2.4,-0.93 0.72,0 1.19,0.31 1.44,0.95 0.23,0.63 0.35,1.72 0.35,3.26 0,4.77 -1.93,10.61 -5.81,17.56 -3.88,6.93 -9.28,14.02 -16.21,21.25 -0.33,1.79 -0.51,3.16 -0.51,4.1 0,2.19 0.47,3.98 1.42,5.35 0.95,1.37 2.25,2.05 3.93,2.05 0.86,0 1.79,-0.33 2.79,-1 1,-0.67 2.04,-1.51 3.14,-2.49 1.09,-1 3.25,-2.97 6.44,-5.91zm-15.4 -9.23c1.79,-1.75 3.51,-3.74 5.18,-5.96 1.67,-2.23 3.25,-4.6 4.72,-7.14 1.48,-2.53 2.63,-4.81 3.47,-6.82 0.84,-2.02 1.26,-3.54 1.26,-4.58 0,-0.79 -0.28,-1.18 -0.82,-1.18 -0.21,0 -0.6,0.19 -1.18,0.56 -2.1,1.72 -4.46,5.05 -7.07,10.03 -2.62,4.98 -4.46,10.02 -5.56,15.09zm39.14 6.32c-4.96,6.58 -8.75,11.26 -11.33,14.03 -2.6,2.79 -4.7,4.17 -6.35,4.17 -1.3,0 -2.49,-0.54 -3.6,-1.61 -1.09,-1.09 -1.95,-2.55 -2.55,-4.39 -0.6,-1.83 -0.89,-3.79 -0.89,-5.88 0,-1.37 0.12,-2.62 0.38,-3.7 0.26,-1.1 0.74,-2.32 1.46,-3.63 0.72,-1.32 1.68,-2.75 2.86,-4.3 1.17,-1.54 2.63,-3.28 4.33,-5.25 1.04,-1.19 1.9,-2.21 2.6,-3.03 0.7,-0.83 1.39,-1.37 2.05,-1.67 0.66,-0.3 1.75,-0.44 3.26,-0.44 1.1,0 2.14,0.14 3.14,0.44 1,0.28 1.49,0.6 1.49,0.89 0,0.61 -0.51,1.74 -1.51,3.35 -1.02,1.6 -2.65,3.56 -4.9,5.88 -2.25,2.32 -4.82,4.58 -7.77,6.81 -0.65,2.03 -0.98,3.56 -0.98,4.63 0,1.47 0.56,2.21 1.7,2.21 0.41,0 1.09,-0.35 2.05,-1.05 0.95,-0.7 2.58,-2.05 4.86,-4.05 2.26,-2 4.31,-3.77 6.12,-5.31 1.35,-1.16 2.9,-2.9 4.67,-5.21 1.75,-2.31 3.19,-4.05 4.28,-5.21 2.54,-2.67 4.28,-4.4 5.19,-5.21 0.93,-0.81 1.82,-1.21 2.68,-1.21 0.81,0 1.37,0.26 1.67,0.77 0.28,0.51 0.44,1.56 0.44,3.12 0,0.72 -0.07,1.32 -0.21,1.75 -0.14,0.44 -0.42,1.02 -0.84,1.72 -0.44,0.7 -1.3,2 -2.6,3.88 -1.32,1.88 -2.84,4.11 -4.63,6.67 -0.97,1.39 -1.79,2.88 -2.51,4.51 -0.72,1.61 -1.09,2.84 -1.09,3.67 0,1.77 0.7,2.67 2.1,2.67 1.18,0 2.53,-0.47 4.07,-1.44 1.52,-0.97 3.89,-2.69 7.09,-5.19l0 3.45c-4.02,3.7 -6.98,6.39 -8.9,8.07 -1.91,1.68 -3.58,2.95 -4.98,3.8 -1.4,0.86 -2.74,1.3 -4.02,1.3 -2.88,0 -4.32,-1.72 -4.32,-5.16 0,-1.3 0.42,-3.05 1.28,-5.26 0.86,-2.21 2.25,-5.42 4.18,-9.6zm16.1 4.95l0 -1.25c8.84,-9.31 14.91,-15.84 18.25,-19.58 0.75,-4.23 2.56,-6.33 5.44,-6.33 0.72,0 1.49,0.21 2.31,0.61l0.32 0.98c-0.14,0.4 -0.21,1 -0.21,1.75 0,0.65 0.24,1.86 0.75,3.61 0.49,1.77 0.88,3.26 1.16,4.45 0.26,1.19 0.4,2.56 0.4,4.07 0,2.26 -0.51,4.42 -1.55,6.49 -1.03,2.09 -2.52,4.07 -4.47,5.98 -1.95,1.9 -4.47,3.84 -7.56,5.83 1.23,0.21 2.21,0.31 2.93,0.31 1.4,0 2.93,-0.35 4.56,-1.05 1.61,-0.7 3.28,-1.65 4.98,-2.82 1.7,-1.19 3.67,-2.72 5.93,-4.6l0 3.44c-4.39,4.28 -8.3,7.51 -11.77,9.72 -3.45,2.21 -6.44,3.32 -8.93,3.32 -3.23,0 -6.21,-1.37 -8.95,-4.1 -1.61,-1.65 -2.61,-3.23 -3.02,-4.72 -0.39,-1.51 -0.58,-3.56 -0.58,-6.12zm19.15 -7.86l-0.93 -7.51c-2.12,2.4 -6.65,7.02 -13.61,13.82 2.05,0.45 3.46,1.05 4.21,1.81 0.75,0.75 1.82,2.21 3.19,4.37 2.33,-0.97 4.12,-2.26 5.37,-3.93 1.25,-1.67 1.88,-3.93 1.88,-6.81 0,-0.35 0,-0.67 -0.02,-0.93 -0.02,-0.28 -0.05,-0.55 -0.09,-0.82zm96.61 7.74c-0.86,-1.58 -2.14,-3 -3.86,-4.26 -1.7,-1.26 -3.63,-2.28 -5.77,-3.05 -2.14,-0.77 -4.39,-1.35 -6.7,-1.72 -6.91,-1.03 -13.37,-3.26 -19.37,-6.74 -0.51,-0.26 -1.05,-0.84 -1.63,-1.74 -0.58,-0.9 -0.88,-1.76 -0.88,-2.58 0,-3 0.51,-6.03 1.51,-9.05 1.02,-3.03 2.3,-5.4 3.88,-7.12 2.53,-2.84 7.09,-5.33 13.68,-7.47 6.6,-2.12 14.02,-3.19 22.28,-3.19 4.93,0 8.74,0.39 11.44,1.14 2.69,0.75 4.04,1.91 4.04,3.49 0,2.58 -0.37,4.58 -1.07,5.98 -0.7,1.4 -1.46,2.33 -2.25,2.81 -0.81,0.45 -2.23,1.09 -4.25,1.88 -2.16,0.75 -4.04,1.55 -5.63,2.37 -1.6,0.82 -2.95,1.61 -4.09,2.37 -1.12,0.75 -1.83,1.12 -2.11,1.12 -0.33,0 -0.51,-0.14 -0.51,-0.4 0,-0.6 0.6,-1.47 1.83,-2.65 1.21,-1.19 2.72,-2.23 4.49,-3.12 1.9,-0.98 2.82,-1.61 2.82,-1.9 0,-0.44 -1.04,-0.67 -3.12,-0.67 -6.35,0 -12.19,0.56 -17.58,1.7 -5.39,1.12 -9.61,2.61 -12.72,4.46 -3.1,1.86 -4.65,3.74 -4.65,5.65 0,1.21 0.65,2.05 1.93,2.54 1.28,0.49 4.12,1.33 8.51,2.49 4.37,1.16 8.3,2.51 11.75,4 4.97,2.12 8.65,4.33 11.05,6.63 2.4,2.3 3.6,4.86 3.6,7.7 0,1.95 -0.47,3.91 -1.42,5.88 -0.93,1.96 -2.31,3.77 -4.12,5.42 -1.82,1.63 -3.91,2.98 -6.28,4.05 -2.02,0.86 -4.56,1.67 -7.61,2.42 -3.07,0.75 -6.39,1.35 -9.96,1.77 -3.58,0.44 -7,0.65 -10.25,0.65 -6,0 -10.83,-0.56 -14.47,-1.7 -3.65,-1.12 -5.47,-2.84 -5.47,-5.14 0,-1.02 0.61,-2.61 1.86,-4.79 1.23,-2.17 2.69,-3.65 4.37,-4.4 1.47,-0.58 2.89,-0.91 4.26,-1 1.37,-0.09 2.05,0.07 2.05,0.49 0,0.1 -0.05,0.21 -0.16,0.32 -0.1,0.09 -0.21,0.17 -0.35,0.25 -0.14,0.07 -0.28,0.14 -0.42,0.21 -0.68,0.28 -1.23,0.49 -1.67,0.65 -0.42,0.14 -0.77,0.3 -1.02,0.46 -0.26,0.16 -0.39,0.37 -0.39,0.63 0,0.72 3.55,1.09 10.63,1.09 6.16,0 11.21,-0.23 15.14,-0.67 3.95,-0.44 7.42,-1.25 10.44,-2.42 3,-1.16 5.75,-2.77 8.21,-4.82zm35.91 -24.3c-0.86,0 -1.67,-0.33 -2.44,-0.98 -0.77,-0.65 -1.15,-1.47 -1.15,-2.45 0,-1.51 0.72,-3.19 2.16,-5.05 1.44,-1.84 2.93,-2.77 4.45,-2.77 1.04,0 1.9,0.32 2.58,0.95 0.68,0.63 1.02,1.56 1.02,2.75 0,1.47 -0.7,3.1 -2.1,4.89 -1.4,1.77 -2.91,2.67 -4.51,2.67zm3.49 22.96l0 3.75c-3.33,4.28 -6.44,7.53 -9.32,9.7 -2.88,2.18 -5.31,3.26 -7.33,3.26 -2.83,0 -4.91,-1.47 -6.28,-4.42 -1.37,-2.95 -2.05,-6.18 -2.05,-9.67 0,-1.33 0.14,-2.61 0.4,-3.82 0.28,-1.23 0.62,-2.23 0.98,-3.02 0.39,-0.79 1.09,-2.02 2.12,-3.7 4.86,-7.58 9.31,-11.37 13.35,-11.37 2.09,0 3.14,0.8 3.14,2.42 0,1.09 -0.69,2.81 -2.04,5.14 -1.35,2.33 -2.56,4 -3.61,5 -2.98,2.88 -4.93,4.88 -5.82,6 -0.91,1.14 -1.37,2.42 -1.37,3.86 0,1.23 0.46,2.26 1.39,3.09 0.93,0.82 2.12,1.23 3.6,1.23 1.61,0 3.39,-0.6 5.31,-1.77 1.93,-1.18 4.44,-3.07 7.53,-5.68zm-1.09 4.51l0 -3.81c1.9,-1.98 3.83,-4.75 5.82,-8.31 -1.93,-0.26 -2.89,-1.04 -2.89,-2.3 0,-1.07 0.65,-2.44 1.93,-4.1 1.3,-1.69 2.81,-3.19 4.53,-4.53 1.74,-1.33 3.09,-2 4.09,-2 1.12,0 1.7,0.45 1.7,1.39 0,0.37 -0.11,0.61 -0.32,0.7 -0.28,0.17 -0.4,0.47 -0.4,0.88 0,0.33 0.26,0.51 0.8,0.51 1.72,0 3.86,-0.35 6.44,-1.05 2.6,-0.7 4.35,-1.05 5.31,-1.05 0.79,0 1.32,0.74 1.6,2.21 0.72,3.91 1.07,6.12 1.07,6.63 0,0.49 -0.21,0.93 -0.65,1.37 -0.42,0.42 -1.61,1.28 -3.58,2.54 -1.96,1.26 -3.79,2.49 -5.47,3.68 -1.67,1.18 -3.84,2.82 -6.51,4.95 1.84,0.86 3.19,1.82 4.04,2.9 0.84,1.05 1.56,2.68 2.17,4.88l12.82 -10.1 0 3.44 -12.93 10.44c-0.33,3.3 -1.47,6.63 -3.4,10.04 -1.95,3.39 -4.2,6.44 -6.77,9.14 -2.56,2.72 -5.12,4.93 -7.66,6.67 -2.53,1.74 -4.39,2.6 -5.55,2.6 -1.14,0 -1.91,-0.37 -2.37,-1.1 -0.44,-0.74 -0.67,-1.81 -0.67,-3.21 0,-2.02 0.44,-3.95 1.31,-5.75 0.88,-1.82 2.14,-3.63 3.81,-5.42 1.65,-1.81 3.67,-3.63 6.02,-5.51 2.35,-1.86 5.47,-4.12 9.38,-6.81 -0.39,-2.42 -1.02,-3.95 -1.91,-4.55 -0.88,-0.6 -2.25,-1.19 -4.07,-1.79 -1.84,-0.61 -2.75,-1.51 -2.75,-2.7 0,-1.33 6.42,-6.45 19.26,-15.37 -2.05,0.4 -4.47,0.86 -7.24,1.37 -2.77,0.49 -5.4,0.84 -7.91,1.05 -1.74,2.77 -3.4,5.19 -4.98,7.28 -1.58,2.09 -2.93,3.7 -4.07,4.82zm13.16 14.74c-2.45,1.7 -4.84,3.63 -7.14,5.77 -2.3,2.14 -4.28,4.18 -5.95,6.09 -1.67,1.91 -2.49,3.07 -2.49,3.49 0,0.79 0.35,1.17 1.04,1.17 1.23,0 2.82,-0.68 4.77,-2.05 1.96,-1.37 3.86,-3.33 5.72,-5.88 1.84,-2.54 3.21,-5.42 4.05,-8.6zm27.45 -17.38l0 1.28c0,2.02 0.49,3.6 1.49,4.72 1,1.14 2.3,1.7 3.91,1.7 1.66,0 3.42,-0.39 5.21,-1.17 1.81,-0.79 3.6,-1.84 5.37,-3.14 1.79,-1.3 3.97,-3.05 6.53,-5.25l0 3.14c-3.86,4.65 -7.49,8.23 -10.89,10.7 -3.39,2.47 -6.82,3.72 -10.33,3.72 -3.04,0 -5.45,-1.17 -7.25,-3.54 -1.77,-2.37 -2.67,-5.6 -2.67,-9.72 0,-3.6 0.84,-6.86 2.53,-9.79 1.67,-2.93 4.4,-6.02 8.21,-9.26 2.61,-2.23 5.19,-3.91 7.77,-5.04 2.56,-1.14 4.86,-1.7 6.88,-1.7 1.61,0 2.89,0.37 3.82,1.1 0.95,0.74 1.42,1.84 1.42,3.32 0,2.16 -0.81,4.31 -2.42,6.45 -1.61,2.14 -4.07,4.26 -7.37,6.39 -3.31,2.1 -7.39,4.14 -12.21,6.09zm0.51 -3.33c3.09,-1.21 5.72,-2.7 7.91,-4.47 2.19,-1.77 3.81,-3.49 4.86,-5.1 1.04,-1.63 1.56,-2.82 1.56,-3.58 0,-0.79 -0.35,-1.18 -1.07,-1.18 -0.63,0 -1.63,0.39 -3.02,1.18 -1.39,0.79 -2.79,1.82 -4.21,3.09 -1.42,1.26 -2.68,2.75 -3.82,4.47 -1.12,1.7 -1.86,3.58 -2.21,5.6z"/>
  </g>
 </g>
</svg>
